<svg xmlns="http://www.w3.org/2000/svg" xmlns:xlink="http://www.w3.org/1999/xlink" width="866pt" height="1324pt" viewBox="0 0 866 1323.86"><g id="graph0" class="graph" transform="scale(1 1) rotate(0) translate(4 1319.8581)"><title>dependency-cruiser output</title><polygon fill="#fff" stroke="transparent" points="-4 4 -4 -1319.858 862 -1319.858 862 4 -4 4"/><g id="clust1" class="cluster"><title>cluster_config</title><path fill="#fff" stroke="#000" stroke-width="2" d="M363.5,-51.8581C363.5,-51.8581 409.5,-51.8581 409.5,-51.8581 415.5,-51.8581 421.5,-57.8581 421.5,-63.8581 421.5,-63.8581 421.5,-91.8581 421.5,-91.8581 421.5,-97.8581 415.5,-103.8581 409.5,-103.8581 409.5,-103.8581 363.5,-103.8581 363.5,-103.8581 357.5,-103.8581 351.5,-97.8581 351.5,-91.8581 351.5,-91.8581 351.5,-63.8581 351.5,-63.8581 351.5,-57.8581 357.5,-51.8581 363.5,-51.8581"/><text x="386.5" y="-92.658" fill="#000" font-family="Helvetica,sans-Serif" font-size="9" font-weight="bold" text-anchor="middle">config</text></g><g id="clust2" class="cluster"><title>cluster_src</title><path fill="#fff" stroke="#000" stroke-width="2" d="M20,-111.8581C20,-111.8581 838,-111.8581 838,-111.8581 844,-111.8581 850,-117.8581 850,-123.8581 850,-123.8581 850,-1295.8581 850,-1295.8581 850,-1301.8581 844,-1307.8581 838,-1307.8581 838,-1307.8581 20,-1307.8581 20,-1307.8581 14,-1307.8581 8,-1301.8581 8,-1295.8581 8,-1295.8581 8,-123.8581 8,-123.8581 8,-117.8581 14,-111.8581 20,-111.8581"/><text x="429" y="-1296.658" fill="#000" font-family="Helvetica,sans-Serif" font-size="9" font-weight="bold" text-anchor="middle">src</text></g><g id="clust3" class="cluster"><title>cluster_src/client</title><path fill="#fff" stroke="#000" stroke-width="2" d="M128,-1037.8581C128,-1037.8581 174,-1037.8581 174,-1037.8581 180,-1037.8581 186,-1043.8581 186,-1049.8581 186,-1049.8581 186,-1077.8581 186,-1077.8581 186,-1083.8581 180,-1089.8581 174,-1089.8581 174,-1089.8581 128,-1089.8581 128,-1089.8581 122,-1089.8581 116,-1083.8581 116,-1077.8581 116,-1077.8581 116,-1049.8581 116,-1049.8581 116,-1043.8581 122,-1037.8581 128,-1037.8581"/><text x="151" y="-1078.658" fill="#000" font-family="Helvetica,sans-Serif" font-size="9" font-weight="bold" text-anchor="middle">client</text></g><g id="clust4" class="cluster"><title>cluster_src/server</title><path fill="#fff" stroke="#000" stroke-width="2" d="M28,-145.8581C28,-145.8581 319,-145.8581 319,-145.8581 325,-145.8581 331,-151.8581 331,-157.8581 331,-157.8581 331,-339.8581 331,-339.8581 331,-345.8581 325,-351.8581 319,-351.8581 319,-351.8581 28,-351.8581 28,-351.8581 22,-351.8581 16,-345.8581 16,-339.8581 16,-339.8581 16,-157.8581 16,-157.8581 16,-151.8581 22,-145.8581 28,-145.8581"/><text x="173.5" y="-340.658" fill="#000" font-family="Helvetica,sans-Serif" font-size="9" font-weight="bold" text-anchor="middle">server</text></g><g id="clust5" class="cluster"><title>cluster_src/server/components</title><path fill="#fff" stroke="#000" stroke-width="2" d="M255,-247.8581C255,-247.8581 302,-247.8581 302,-247.8581 308,-247.8581 314,-253.8581 314,-259.8581 314,-259.8581 314,-287.8581 314,-287.8581 314,-293.8581 308,-299.8581 302,-299.8581 302,-299.8581 255,-299.8581 255,-299.8581 249,-299.8581 243,-293.8581 243,-287.8581 243,-287.8581 243,-259.8581 243,-259.8581 243,-253.8581 249,-247.8581 255,-247.8581"/><text x="278.5" y="-288.658" fill="#000" font-family="Helvetica,sans-Serif" font-size="9" font-weight="bold" text-anchor="middle">components</text></g><g id="clust6" class="cluster"><title>cluster_src/server/lib</title><path fill="#fff" stroke="#000" stroke-width="2" d="M246,-153.8581C246,-153.8581 311,-153.8581 311,-153.8581 317,-153.8581 323,-159.8581 323,-165.8581 323,-165.8581 323,-227.8581 323,-227.8581 323,-233.8581 317,-239.8581 311,-239.8581 311,-239.8581 246,-239.8581 246,-239.8581 240,-239.8581 234,-233.8581 234,-227.8581 234,-227.8581 234,-165.8581 234,-165.8581 234,-159.8581 240,-153.8581 246,-153.8581"/><text x="278.5" y="-228.658" fill="#000" font-family="Helvetica,sans-Serif" font-size="9" font-weight="bold" text-anchor="middle">lib</text></g><g id="clust7" class="cluster"><title>cluster_src/server/lib/i18n</title><path fill="#fff" stroke="#000" stroke-width="2" d="M254,-161.8581C254,-161.8581 303,-161.8581 303,-161.8581 309,-161.8581 315,-167.8581 315,-173.8581 315,-173.8581 315,-201.8581 315,-201.8581 315,-207.8581 309,-213.8581 303,-213.8581 303,-213.8581 254,-213.8581 254,-213.8581 248,-213.8581 242,-207.8581 242,-201.8581 242,-201.8581 242,-173.8581 242,-173.8581 242,-167.8581 248,-161.8581 254,-161.8581"/><text x="278.5" y="-202.658" fill="#000" font-family="Helvetica,sans-Serif" font-size="9" font-weight="bold" text-anchor="middle">i18n</text></g><g id="clust8" class="cluster"><title>cluster_src/server/middleware</title><path fill="#fff" stroke="#000" stroke-width="2" d="M100.5,-153.8581C100.5,-153.8581 201.5,-153.8581 201.5,-153.8581 207.5,-153.8581 213.5,-159.8581 213.5,-165.8581 213.5,-165.8581 213.5,-313.8581 213.5,-313.8581 213.5,-319.8581 207.5,-325.8581 201.5,-325.8581 201.5,-325.8581 100.5,-325.8581 100.5,-325.8581 94.5,-325.8581 88.5,-319.8581 88.5,-313.8581 88.5,-313.8581 88.5,-165.8581 88.5,-165.8581 88.5,-159.8581 94.5,-153.8581 100.5,-153.8581"/><text x="151" y="-314.658" fill="#000" font-family="Helvetica,sans-Serif" font-size="9" font-weight="bold" text-anchor="middle">middleware</text></g><g id="clust9" class="cluster"><title>cluster_src/shared</title><path fill="#fff" stroke="#000" stroke-width="2" d="M233.5,-359.8581C233.5,-359.8581 830,-359.8581 830,-359.8581 836,-359.8581 842,-365.8581 842,-371.8581 842,-371.8581 842,-1269.8581 842,-1269.8581 842,-1275.8581 836,-1281.8581 830,-1281.8581 830,-1281.8581 233.5,-1281.8581 233.5,-1281.8581 227.5,-1281.8581 221.5,-1275.8581 221.5,-1269.8581 221.5,-1269.8581 221.5,-371.8581 221.5,-371.8581 221.5,-365.8581 227.5,-359.8581 233.5,-359.8581"/><text x="531.75" y="-1270.658" fill="#000" font-family="Helvetica,sans-Serif" font-size="9" font-weight="bold" text-anchor="middle">shared</text></g><g id="clust10" class="cluster"><title>cluster_src/shared/assets</title><path fill="#fff" stroke="#000" stroke-width="2" d="M478,-423.8581C478,-423.8581 534,-423.8581 534,-423.8581 540,-423.8581 546,-429.8581 546,-435.8581 546,-435.8581 546,-493.8581 546,-493.8581 546,-499.8581 540,-505.8581 534,-505.8581 534,-505.8581 478,-505.8581 478,-505.8581 472,-505.8581 466,-499.8581 466,-493.8581 466,-493.8581 466,-435.8581 466,-435.8581 466,-429.8581 472,-423.8581 478,-423.8581"/><text x="506" y="-494.658" fill="#000" font-family="Helvetica,sans-Serif" font-size="9" font-weight="bold" text-anchor="middle">assets</text></g><g id="clust11" class="cluster"><title>cluster_src/shared/components</title><path fill="#fff" stroke="#000" stroke-width="2" d="M582,-787.8581C582,-787.8581 822,-787.8581 822,-787.8581 828,-787.8581 834,-793.8581 834,-799.8581 834,-799.8581 834,-891.8581 834,-891.8581 834,-897.8581 828,-903.8581 822,-903.8581 822,-903.8581 582,-903.8581 582,-903.8581 576,-903.8581 570,-897.8581 570,-891.8581 570,-891.8581 570,-799.8581 570,-799.8581 570,-793.8581 576,-787.8581 582,-787.8581"/><text x="702" y="-892.658" fill="#000" font-family="Helvetica,sans-Serif" font-size="9" font-weight="bold" text-anchor="middle">components</text></g><g id="clust12" class="cluster"><title>cluster_src/shared/components/Features</title><path fill="#fff" stroke="#000" stroke-width="2" d="M590,-795.8581C590,-795.8581 814,-795.8581 814,-795.8581 820,-795.8581 826,-801.8581 826,-807.8581 826,-807.8581 826,-865.8581 826,-865.8581 826,-871.8581 820,-877.8581 814,-877.8581 814,-877.8581 590,-877.8581 590,-877.8581 584,-877.8581 578,-871.8581 578,-865.8581 578,-865.8581 578,-807.8581 578,-807.8581 578,-801.8581 584,-795.8581 590,-795.8581"/><text x="702" y="-866.658" fill="#000" font-family="Helvetica,sans-Serif" font-size="9" font-weight="bold" text-anchor="middle">Features</text></g><g id="clust13" class="cluster"><title>cluster_src/shared/i18n</title><path fill="#fff" stroke="#000" stroke-width="2" d="M471.5,-1075.8581C471.5,-1075.8581 696.5,-1075.8581 696.5,-1075.8581 702.5,-1075.8581 708.5,-1081.8581 708.5,-1087.8581 708.5,-1087.8581 708.5,-1243.8581 708.5,-1243.8581 708.5,-1249.8581 702.5,-1255.8581 696.5,-1255.8581 696.5,-1255.8581 471.5,-1255.8581 471.5,-1255.8581 465.5,-1255.8581 459.5,-1249.8581 459.5,-1243.8581 459.5,-1243.8581 459.5,-1087.8581 459.5,-1087.8581 459.5,-1081.8581 465.5,-1075.8581 471.5,-1075.8581"/><text x="584" y="-1244.658" fill="#000" font-family="Helvetica,sans-Serif" font-size="9" font-weight="bold" text-anchor="middle">i18n</text></g><g id="clust14" class="cluster"><title>cluster_src/shared/i18n/locales</title><path fill="#fff" stroke="#000" stroke-width="2" d="M601.5,-1083.8581C601.5,-1083.8581 688.5,-1083.8581 688.5,-1083.8581 694.5,-1083.8581 700.5,-1089.8581 700.5,-1095.8581 700.5,-1095.8581 700.5,-1217.8581 700.5,-1217.8581 700.5,-1223.8581 694.5,-1229.8581 688.5,-1229.8581 688.5,-1229.8581 601.5,-1229.8581 601.5,-1229.8581 595.5,-1229.8581 589.5,-1223.8581 589.5,-1217.8581 589.5,-1217.8581 589.5,-1095.8581 589.5,-1095.8581 589.5,-1089.8581 595.5,-1083.8581 601.5,-1083.8581"/><text x="645" y="-1218.658" fill="#000" font-family="Helvetica,sans-Serif" font-size="9" font-weight="bold" text-anchor="middle">locales</text></g><g id="clust15" class="cluster"><title>cluster_src/shared/i18n/locales/de_DE</title><path fill="#fff" stroke="#000" stroke-width="2" d="M609.5,-1151.8581C609.5,-1151.8581 680.5,-1151.8581 680.5,-1151.8581 686.5,-1151.8581 692.5,-1157.8581 692.5,-1163.8581 692.5,-1163.8581 692.5,-1191.8581 692.5,-1191.8581 692.5,-1197.8581 686.5,-1203.8581 680.5,-1203.8581 680.5,-1203.8581 609.5,-1203.8581 609.5,-1203.8581 603.5,-1203.8581 597.5,-1197.8581 597.5,-1191.8581 597.5,-1191.8581 597.5,-1163.8581 597.5,-1163.8581 597.5,-1157.8581 603.5,-1151.8581 609.5,-1151.8581"/><text x="645" y="-1192.658" fill="#000" font-family="Helvetica,sans-Serif" font-size="9" font-weight="bold" text-anchor="middle">de_DE</text></g><g id="clust16" class="cluster"><title>cluster_src/shared/i18n/locales/en_US</title><path fill="#fff" stroke="#000" stroke-width="2" d="M609.5,-1091.8581C609.5,-1091.8581 680.5,-1091.8581 680.5,-1091.8581 686.5,-1091.8581 692.5,-1097.8581 692.5,-1103.8581 692.5,-1103.8581 692.5,-1131.8581 692.5,-1131.8581 692.5,-1137.8581 686.5,-1143.8581 680.5,-1143.8581 680.5,-1143.8581 609.5,-1143.8581 609.5,-1143.8581 603.5,-1143.8581 597.5,-1137.8581 597.5,-1131.8581 597.5,-1131.8581 597.5,-1103.8581 597.5,-1103.8581 597.5,-1097.8581 603.5,-1091.8581 609.5,-1091.8581"/><text x="645" y="-1132.658" fill="#000" font-family="Helvetica,sans-Serif" font-size="9" font-weight="bold" text-anchor="middle">en_US</text></g><g id="clust17" class="cluster"><title>cluster_src/shared/pages</title><path fill="#fff" stroke="#000" stroke-width="2" d="M446,-513.8581C446,-513.8581 696.5,-513.8581 696.5,-513.8581 702.5,-513.8581 708.5,-519.8581 708.5,-525.8581 708.5,-525.8581 708.5,-767.8581 708.5,-767.8581 708.5,-773.8581 702.5,-779.8581 696.5,-779.8581 696.5,-779.8581 446,-779.8581 446,-779.8581 440,-779.8581 434,-773.8581 434,-767.8581 434,-767.8581 434,-525.8581 434,-525.8581 434,-519.8581 440,-513.8581 446,-513.8581"/><text x="571.25" y="-768.658" fill="#000" font-family="Helvetica,sans-Serif" font-size="9" font-weight="bold" text-anchor="middle">pages</text></g><g id="clust18" class="cluster"><title>cluster_src/shared/pages/Home</title><path fill="#fff" stroke="#000" stroke-width="2" d="M483,-701.8581C483,-701.8581 529,-701.8581 529,-701.8581 535,-701.8581 541,-707.8581 541,-713.8581 541,-713.8581 541,-741.8581 541,-741.8581 541,-747.8581 535,-753.8581 529,-753.8581 529,-753.8581 483,-753.8581 483,-753.8581 477,-753.8581 471,-747.8581 471,-741.8581 471,-741.8581 471,-713.8581 471,-713.8581 471,-707.8581 477,-701.8581 483,-701.8581"/><text x="506" y="-742.658" fill="#000" font-family="Helvetica,sans-Serif" font-size="9" font-weight="bold" text-anchor="middle">Home</text></g><g id="clust19" class="cluster"><title>cluster_src/shared/pages/Page-1</title><path fill="#fff" stroke="#000" stroke-width="2" d="M454,-581.8581C454,-581.8581 688.5,-581.8581 688.5,-581.8581 694.5,-581.8581 700.5,-587.8581 700.5,-593.8581 700.5,-593.8581 700.5,-681.8581 700.5,-681.8581 700.5,-687.8581 694.5,-693.8581 688.5,-693.8581 688.5,-693.8581 454,-693.8581 454,-693.8581 448,-693.8581 442,-687.8581 442,-681.8581 442,-681.8581 442,-593.8581 442,-593.8581 442,-587.8581 448,-581.8581 454,-581.8581"/><text x="571.25" y="-682.658" fill="#000" font-family="Helvetica,sans-Serif" font-size="9" font-weight="bold" text-anchor="middle">Page-1</text></g><g id="clust20" class="cluster"><title>cluster_src/shared/pages/Page-2</title><path fill="#fff" stroke="#000" stroke-width="2" d="M483,-521.8581C483,-521.8581 529,-521.8581 529,-521.8581 535,-521.8581 541,-527.8581 541,-533.8581 541,-533.8581 541,-561.8581 541,-561.8581 541,-567.8581 535,-573.8581 529,-573.8581 529,-573.8581 483,-573.8581 483,-573.8581 477,-573.8581 471,-567.8581 471,-561.8581 471,-561.8581 471,-533.8581 471,-533.8581 471,-527.8581 477,-521.8581 483,-521.8581"/><text x="506" y="-562.658" fill="#000" font-family="Helvetica,sans-Serif" font-size="9" font-weight="bold" text-anchor="middle">Page-2</text></g><g id="clust21" class="cluster"><title>cluster_src/shared/store</title><path fill="#fff" stroke="#000" stroke-width="2" d="M255.5,-911.8581C255.5,-911.8581 798.5,-911.8581 798.5,-911.8581 804.5,-911.8581 810.5,-917.8581 810.5,-923.8581 810.5,-923.8581 810.5,-1055.8581 810.5,-1055.8581 810.5,-1061.8581 804.5,-1067.8581 798.5,-1067.8581 798.5,-1067.8581 255.5,-1067.8581 255.5,-1067.8581 249.5,-1067.8581 243.5,-1061.8581 243.5,-1055.8581 243.5,-1055.8581 243.5,-923.8581 243.5,-923.8581 243.5,-917.8581 249.5,-911.8581 255.5,-911.8581"/><text x="527" y="-1056.658" fill="#000" font-family="Helvetica,sans-Serif" font-size="9" font-weight="bold" text-anchor="middle">store</text></g><g id="clust22" class="cluster"><title>cluster_src/shared/store/app</title><path fill="#fff" stroke="#000" stroke-width="2" d="M351,-945.8581C351,-945.8581 790.5,-945.8581 790.5,-945.8581 796.5,-945.8581 802.5,-951.8581 802.5,-957.8581 802.5,-957.8581 802.5,-1029.8581 802.5,-1029.8581 802.5,-1035.8581 796.5,-1041.8581 790.5,-1041.8581 790.5,-1041.8581 351,-1041.8581 351,-1041.8581 345,-1041.8581 339,-1035.8581 339,-1029.8581 339,-1029.8581 339,-957.8581 339,-957.8581 339,-951.8581 345,-945.8581 351,-945.8581"/><text x="570.75" y="-1030.658" fill="#000" font-family="Helvetica,sans-Serif" font-size="9" font-weight="bold" text-anchor="middle">app</text></g><g id="node1" class="node"><title>config/paths.ts</title><g id="a_node1"><a xlink:href="config/paths.ts" xlink:title="paths.ts"><path fill="#ddfeff" stroke="#000" d="M407.5,-77.8581C407.5,-77.8581 365.5,-77.8581 365.5,-77.8581 362.5,-77.8581 359.5,-74.8581 359.5,-71.8581 359.5,-71.8581 359.5,-65.8581 359.5,-65.8581 359.5,-62.8581 362.5,-59.8581 365.5,-59.8581 365.5,-59.8581 407.5,-59.8581 407.5,-59.8581 410.5,-59.8581 413.5,-62.8581 413.5,-65.8581 413.5,-65.8581 413.5,-71.8581 413.5,-71.8581 413.5,-74.8581 410.5,-77.8581 407.5,-77.8581"/><text x="386.5" y="-66.658" fill="#000" font-family="Helvetica,sans-Serif" font-size="9" text-anchor="middle">paths.ts</text></a></g></g><g id="node2" class="node"><title>fs</title><path fill="#ffc" stroke="silver" d="M527,-103.8581C527,-103.8581 485,-103.8581 485,-103.8581 482,-103.8581 479,-100.8581 479,-97.8581 479,-97.8581 479,-91.8581 479,-91.8581 479,-88.8581 482,-85.8581 485,-85.8581 485,-85.8581 527,-85.8581 527,-85.8581 530,-85.8581 533,-88.8581 533,-91.8581 533,-91.8581 533,-97.8581 533,-97.8581 533,-100.8581 530,-103.8581 527,-103.8581"/><text x="506" y="-92.658" fill="silver" font-family="Helvetica,sans-Serif" font-size="9" text-anchor="middle">fs</text></g><g id="edge1" class="edge"><title>config/paths.ts-&gt;fs</title><path fill="none" stroke="#000" stroke-dasharray="5 2" stroke-opacity=".2" d="M413.6164,-74.7579C431.1871,-78.5808 454.1889,-83.5854 472.8448,-87.6444"/><polygon fill="#000" fill-opacity=".2" stroke="#000" stroke-opacity=".2" points="472.682 -89.758 478.991 -88.982 473.575 -85.654 472.682 -89.758"/></g><g id="node3" class="node"><title>path</title><path fill="#ffc" stroke="silver" d="M527,-45.8581C527,-45.8581 485,-45.8581 485,-45.8581 482,-45.8581 479,-42.8581 479,-39.8581 479,-39.8581 479,-33.8581 479,-33.8581 479,-30.8581 482,-27.8581 485,-27.8581 485,-27.8581 527,-27.8581 527,-27.8581 530,-27.8581 533,-30.8581 533,-33.8581 533,-33.8581 533,-39.8581 533,-39.8581 533,-42.8581 530,-45.8581 527,-45.8581"/><text x="506" y="-34.658" fill="silver" font-family="Helvetica,sans-Serif" font-size="9" text-anchor="middle">path</text></g><g id="edge2" class="edge"><title>config/paths.ts-&gt;path</title><path fill="none" stroke="#000" stroke-dasharray="5 2" stroke-opacity=".2" d="M413.6164,-61.5968C431.1871,-56.8917 454.1889,-50.7322 472.8448,-45.7365"/><polygon fill="#000" fill-opacity=".2" stroke="#000" stroke-opacity=".2" points="473.738 -47.671 478.991 -44.091 472.652 -43.614 473.738 -47.671"/></g><g id="node4" class="node"><title>src/client/index.tsx</title><g id="a_node4"><a xlink:href="src/client/index.tsx" xlink:title="index.tsx"><path fill="#bbfeff" stroke="#000" d="M172,-1063.8581C172,-1063.8581 130,-1063.8581 130,-1063.8581 127,-1063.8581 124,-1060.8581 124,-1057.8581 124,-1057.8581 124,-1051.8581 124,-1051.8581 124,-1048.8581 127,-1045.8581 130,-1045.8581 130,-1045.8581 172,-1045.8581 172,-1045.8581 175,-1045.8581 178,-1048.8581 178,-1051.8581 178,-1051.8581 178,-1057.8581 178,-1057.8581 178,-1060.8581 175,-1063.8581 172,-1063.8581"/><text x="151" y="-1052.658" fill="#000" font-family="Helvetica,sans-Serif" font-size="9" text-anchor="middle">index.tsx</text></a></g></g><g id="node5" class="node"><title>src/shared/App.tsx</title><g id="a_node5"><a xlink:href="src/shared/App.tsx" xlink:title="App.tsx"><path fill="#bbfeff" stroke="#000" d="M407.5,-479.8581C407.5,-479.8581 365.5,-479.8581 365.5,-479.8581 362.5,-479.8581 359.5,-476.8581 359.5,-473.8581 359.5,-473.8581 359.5,-467.8581 359.5,-467.8581 359.5,-464.8581 362.5,-461.8581 365.5,-461.8581 365.5,-461.8581 407.5,-461.8581 407.5,-461.8581 410.5,-461.8581 413.5,-464.8581 413.5,-467.8581 413.5,-467.8581 413.5,-473.8581 413.5,-473.8581 413.5,-476.8581 410.5,-479.8581 407.5,-479.8581"/><text x="386.5" y="-468.658" fill="#000" font-family="Helvetica,sans-Serif" font-size="9" text-anchor="middle">App.tsx</text></a></g></g><g id="edge3" class="edge"><title>src/client/index.tsx-&gt;src/shared/App.tsx</title><path fill="none" stroke="#000" stroke-opacity=".2" stroke-width="2" d="M178.19,-1062.0374C223.0393,-1073.1271 309.6956,-1091.1364 331,-1070.8581 337.527,-1064.6455 338.2917,-917.8412 339,-908.8581 352.0856,-742.8963 377.2556,-542.5302 384.5027,-486.2262"/><polygon fill="#000" fill-opacity=".2" stroke="#000" stroke-opacity=".2" stroke-width="2" points="386.61 -486.306 385.296 -480.086 382.444 -485.768 386.61 -486.306"/></g><g id="node6" class="node"><title>src/shared/i18n/IntlProvider.tsx</title><g id="a_node6"><a xlink:href="src/shared/i18n/IntlProvider.tsx" xlink:title="IntlProvider.tsx"><path fill="#bbfeff" stroke="#000" d="M538.5,-1101.8581C538.5,-1101.8581 473.5,-1101.8581 473.5,-1101.8581 470.5,-1101.8581 467.5,-1098.8581 467.5,-1095.8581 467.5,-1095.8581 467.5,-1089.8581 467.5,-1089.8581 467.5,-1086.8581 470.5,-1083.8581 473.5,-1083.8581 473.5,-1083.8581 538.5,-1083.8581 538.5,-1083.8581 541.5,-1083.8581 544.5,-1086.8581 544.5,-1089.8581 544.5,-1089.8581 544.5,-1095.8581 544.5,-1095.8581 544.5,-1098.8581 541.5,-1101.8581 538.5,-1101.8581"/><text x="506" y="-1090.658" fill="#000" font-family="Helvetica,sans-Serif" font-size="9" text-anchor="middle">IntlProvider.tsx</text></a></g></g><g id="edge4" class="edge"><title>src/client/index.tsx-&gt;src/shared/i18n/IntlProvider.tsx</title><path fill="none" stroke="#000" stroke-opacity=".2" stroke-width="2" d="M166.0445,-1063.8642C179.9031,-1071.6206 201.3155,-1082.2683 221.5,-1086.8581 304.4668,-1105.7241 404.5648,-1101.9214 461.1936,-1097.4121"/><polygon fill="#000" fill-opacity=".2" stroke="#000" stroke-opacity=".2" stroke-width="2" points="461.4 -1099.502 467.208 -1096.918 461.056 -1095.316 461.4 -1099.502"/></g><g id="node7" class="node"><title>src/shared/store/index.ts</title><g id="a_node7"><a xlink:href="src/shared/store/index.ts" xlink:title="index.ts"><path fill="#ddfeff" stroke="#000" d="M299.5,-937.8581C299.5,-937.8581 257.5,-937.8581 257.5,-937.8581 254.5,-937.8581 251.5,-934.8581 251.5,-931.8581 251.5,-931.8581 251.5,-925.8581 251.5,-925.8581 251.5,-922.8581 254.5,-919.8581 257.5,-919.8581 257.5,-919.8581 299.5,-919.8581 299.5,-919.8581 302.5,-919.8581 305.5,-922.8581 305.5,-925.8581 305.5,-925.8581 305.5,-931.8581 305.5,-931.8581 305.5,-934.8581 302.5,-937.8581 299.5,-937.8581"/><text x="278.5" y="-926.658" fill="#000" font-family="Helvetica,sans-Serif" font-size="9" text-anchor="middle">index.ts</text></a></g></g><g id="edge5" class="edge"><title>src/client/index.tsx-&gt;src/shared/store/index.ts</title><path fill="none" stroke="#000" stroke-opacity=".2" stroke-width="2" d="M160.1695,-1045.7965C182.2083,-1024.017 238.2666,-968.6182 264.5278,-942.666"/><polygon fill="#000" fill-opacity=".2" stroke="#000" stroke-opacity=".2" stroke-width="2" points="266.278 -943.889 269.07 -938.178 263.326 -940.901 266.278 -943.889"/></g><g id="node8" class="node"><title>src/shared/store/history.ts</title><g id="a_node8"><a xlink:href="src/shared/store/history.ts" xlink:title="history.ts"><path fill="#ddfeff" stroke="#000" d="M299.5,-1041.8581C299.5,-1041.8581 257.5,-1041.8581 257.5,-1041.8581 254.5,-1041.8581 251.5,-1038.8581 251.5,-1035.8581 251.5,-1035.8581 251.5,-1029.8581 251.5,-1029.8581 251.5,-1026.8581 254.5,-1023.8581 257.5,-1023.8581 257.5,-1023.8581 299.5,-1023.8581 299.5,-1023.8581 302.5,-1023.8581 305.5,-1026.8581 305.5,-1029.8581 305.5,-1029.8581 305.5,-1035.8581 305.5,-1035.8581 305.5,-1038.8581 302.5,-1041.8581 299.5,-1041.8581"/><text x="278.5" y="-1030.658" fill="#000" font-family="Helvetica,sans-Serif" font-size="9" text-anchor="middle">history.ts</text></a></g></g><g id="edge6" class="edge"><title>src/client/index.tsx-&gt;src/shared/store/history.ts</title><path fill="none" stroke="#000" stroke-opacity=".2" stroke-width="2" d="M178.0395,-1050.1925C197.7327,-1046.7944 224.5159,-1042.173 245.4753,-1038.5565"/><polygon fill="#000" fill-opacity=".2" stroke="#000" stroke-opacity=".2" stroke-width="2" points="245.944 -1040.607 251.5 -1037.517 245.23 -1036.468 245.944 -1040.607"/></g><g id="node18" class="node"><title>src/shared/App.module.css</title><g id="a_node18"><a xlink:href="src/shared/App.module.css" xlink:title="App.module.css"><path fill="#ffc" stroke="#000" d="M541,-415.8581C541,-415.8581 471,-415.8581 471,-415.8581 468,-415.8581 465,-412.8581 465,-409.8581 465,-409.8581 465,-403.8581 465,-403.8581 465,-400.8581 468,-397.8581 471,-397.8581 471,-397.8581 541,-397.8581 541,-397.8581 544,-397.8581 547,-400.8581 547,-403.8581 547,-403.8581 547,-409.8581 547,-409.8581 547,-412.8581 544,-415.8581 541,-415.8581"/><text x="506" y="-404.658" fill="#000" font-family="Helvetica,sans-Serif" font-size="9" text-anchor="middle">App.module.css</text></a></g></g><g id="edge26" class="edge"><title>src/shared/App.tsx-&gt;src/shared/App.module.css</title><path fill="none" stroke="#000" stroke-opacity=".2" stroke-width="2" d="M392.3757,-461.8375C400.3535,-450.3735 415.7324,-430.8743 434,-420.8581 441.6207,-416.6797 450.2955,-413.7341 458.9207,-411.6611"/><polygon fill="#000" fill-opacity=".2" stroke="#000" stroke-opacity=".2" stroke-width="2" points="459.457 -413.693 464.87 -410.361 458.56 -409.59 459.457 -413.693"/></g><g id="node20" class="node"><title>src/shared/assets/favicon.png</title><g id="a_node20"><a xlink:href="src/shared/assets/favicon.png" xlink:title="favicon.png"><path fill="#ffc" stroke="#000" d="M532,-479.8581C532,-479.8581 480,-479.8581 480,-479.8581 477,-479.8581 474,-476.8581 474,-473.8581 474,-473.8581 474,-467.8581 474,-467.8581 474,-464.8581 477,-461.8581 480,-461.8581 480,-461.8581 532,-461.8581 532,-461.8581 535,-461.8581 538,-464.8581 538,-467.8581 538,-467.8581 538,-473.8581 538,-473.8581 538,-476.8581 535,-479.8581 532,-479.8581"/><text x="506" y="-468.658" fill="#000" font-family="Helvetica,sans-Serif" font-size="9" text-anchor="middle">favicon.png</text></a></g></g><g id="edge25" class="edge"><title>src/shared/App.tsx-&gt;src/shared/assets/favicon.png</title><path fill="none" stroke="#000" stroke-opacity=".2" stroke-width="2" d="M413.6164,-470.8581C429.5623,-470.8581 449.9815,-470.8581 467.5659,-470.8581"/><polygon fill="#000" fill-opacity=".2" stroke="#000" stroke-opacity=".2" stroke-width="2" points="467.903 -472.958 473.902 -470.858 467.902 -468.758 467.903 -472.958"/></g><g id="node21" class="node"><title>src/shared/assets/react.svg</title><g id="a_node21"><a xlink:href="src/shared/assets/react.svg" xlink:title="react.svg"><path fill="#ffc" stroke="#000" d="M527,-449.8581C527,-449.8581 485,-449.8581 485,-449.8581 482,-449.8581 479,-446.8581 479,-443.8581 479,-443.8581 479,-437.8581 479,-437.8581 479,-434.8581 482,-431.8581 485,-431.8581 485,-431.8581 527,-431.8581 527,-431.8581 530,-431.8581 533,-434.8581 533,-437.8581 533,-437.8581 533,-443.8581 533,-443.8581 533,-446.8581 530,-449.8581 527,-449.8581"/><text x="506" y="-438.658" fill="#000" font-family="Helvetica,sans-Serif" font-size="9" text-anchor="middle">react.svg</text></a></g></g><g id="edge27" class="edge"><title>src/shared/App.tsx-&gt;src/shared/assets/react.svg</title><path fill="none" stroke="#000" stroke-opacity=".2" stroke-width="2" d="M413.4919,-461.8177C420.1577,-459.7284 427.3065,-457.6075 434,-455.8581 446.5185,-452.5863 460.4081,-449.5544 472.6217,-447.0851"/><polygon fill="#000" fill-opacity=".2" stroke="#000" stroke-opacity=".2" stroke-width="2" points="473.365 -449.078 478.84 -445.847 472.545 -444.959 473.365 -449.078"/></g><g id="node22" class="node"><title>src/shared/pages/Home/index.tsx</title><g id="a_node22"><a xlink:href="src/shared/pages/Home/index.tsx" xlink:title="index.tsx"><path fill="#bbfeff" stroke="#000" d="M527,-727.8581C527,-727.8581 485,-727.8581 485,-727.8581 482,-727.8581 479,-724.8581 479,-721.8581 479,-721.8581 479,-715.8581 479,-715.8581 479,-712.8581 482,-709.8581 485,-709.8581 485,-709.8581 527,-709.8581 527,-709.8581 530,-709.8581 533,-712.8581 533,-715.8581 533,-715.8581 533,-721.8581 533,-721.8581 533,-724.8581 530,-727.8581 527,-727.8581"/><text x="506" y="-716.658" fill="#000" font-family="Helvetica,sans-Serif" font-size="9" text-anchor="middle">index.tsx</text></a></g></g><g id="edge28" class="edge"><title>src/shared/App.tsx-&gt;src/shared/pages/Home/index.tsx</title><path fill="none" stroke="#000" stroke-opacity=".2" stroke-width="2" d="M387.2018,-480.0206C390.3022,-518.1789 403.9685,-664.0148 434,-696.8581 443.8668,-707.6488 458.859,-713.2097 472.613,-716.0511"/><polygon fill="#000" fill-opacity=".2" stroke="#000" stroke-opacity=".2" stroke-width="2" points="472.545 -718.173 478.822 -717.174 473.292 -714.04 472.545 -718.173"/></g><g id="node23" class="node"><title>src/shared/pages/Page-1/index.tsx</title><g id="a_node23"><a xlink:href="src/shared/pages/Page-1/index.tsx" xlink:title="index.tsx"><path fill="#bbfeff" stroke="#000" d="M527,-667.8581C527,-667.8581 485,-667.8581 485,-667.8581 482,-667.8581 479,-664.8581 479,-661.8581 479,-661.8581 479,-655.8581 479,-655.8581 479,-652.8581 482,-649.8581 485,-649.8581 485,-649.8581 527,-649.8581 527,-649.8581 530,-649.8581 533,-652.8581 533,-655.8581 533,-655.8581 533,-661.8581 533,-661.8581 533,-664.8581 530,-667.8581 527,-667.8581"/><text x="506" y="-656.658" fill="#000" font-family="Helvetica,sans-Serif" font-size="9" text-anchor="middle">index.tsx</text></a></g></g><g id="edge29" class="edge"><title>src/shared/App.tsx-&gt;src/shared/pages/Page-1/index.tsx</title><path fill="none" stroke="#000" stroke-opacity=".2" stroke-width="2" d="M387.7563,-480.0691C392.3653,-512.5045 409.3685,-620.7215 434,-643.8581 444.3303,-653.5615 459.2386,-657.6703 472.8127,-659.2118"/><polygon fill="#000" fill-opacity=".2" stroke="#000" stroke-opacity=".2" stroke-width="2" points="472.773 -661.316 478.934 -659.75 473.142 -657.133 472.773 -661.316"/></g><g id="node24" class="node"><title>src/shared/pages/Page-2/index.tsx</title><g id="a_node24"><a xlink:href="src/shared/pages/Page-2/index.tsx" xlink:title="index.tsx"><path fill="#bbfeff" stroke="#000" d="M527,-547.8581C527,-547.8581 485,-547.8581 485,-547.8581 482,-547.8581 479,-544.8581 479,-541.8581 479,-541.8581 479,-535.8581 479,-535.8581 479,-532.8581 482,-529.8581 485,-529.8581 485,-529.8581 527,-529.8581 527,-529.8581 530,-529.8581 533,-532.8581 533,-535.8581 533,-535.8581 533,-541.8581 533,-541.8581 533,-544.8581 530,-547.8581 527,-547.8581"/><text x="506" y="-536.658" fill="#000" font-family="Helvetica,sans-Serif" font-size="9" text-anchor="middle">index.tsx</text></a></g></g><g id="edge30" class="edge"><title>src/shared/App.tsx-&gt;src/shared/pages/Page-2/index.tsx</title><path fill="none" stroke="#000" stroke-opacity=".2" stroke-width="2" d="M396.0927,-479.8797C405.2875,-488.1878 419.8254,-500.462 434,-508.8581 446.4275,-516.2194 460.9984,-522.6545 473.7691,-527.6573"/><polygon fill="#000" fill-opacity=".2" stroke="#000" stroke-opacity=".2" stroke-width="2" points="473.142 -529.666 479.496 -529.853 474.646 -525.744 473.142 -529.666"/></g><g id="node25" class="node"><title>src/shared/routes.ts</title><g id="a_node25"><a xlink:href="src/shared/routes.ts" xlink:title="routes.ts"><path fill="#ddfeff" stroke="#000" d="M527,-385.8581C527,-385.8581 485,-385.8581 485,-385.8581 482,-385.8581 479,-382.8581 479,-379.8581 479,-379.8581 479,-373.8581 479,-373.8581 479,-370.8581 482,-367.8581 485,-367.8581 485,-367.8581 527,-367.8581 527,-367.8581 530,-367.8581 533,-370.8581 533,-373.8581 533,-373.8581 533,-379.8581 533,-379.8581 533,-382.8581 530,-385.8581 527,-385.8581"/><text x="506" y="-374.658" fill="#000" font-family="Helvetica,sans-Serif" font-size="9" text-anchor="middle">routes.ts</text></a></g></g><g id="edge31" class="edge"><title>src/shared/App.tsx-&gt;src/shared/routes.ts</title><path fill="none" stroke="#000" stroke-opacity=".2" stroke-width="2" d="M389.2243,-461.8498C394.7543,-445.19 408.9461,-409.6469 434,-391.8581 445.1837,-383.9174 459.6593,-379.9997 472.6949,-378.1268"/><polygon fill="#000" fill-opacity=".2" stroke="#000" stroke-opacity=".2" stroke-width="2" points="473.256 -380.174 478.958 -377.363 472.748 -376.005 473.256 -380.174"/></g><g id="node29" class="node"><title>src/shared/store/app/selectors.ts</title><g id="a_node29"><a xlink:href="src/shared/store/app/selectors.ts" xlink:title="selectors.ts"><path fill="#ddfeff" stroke="#000" d="M670,-1015.8581C670,-1015.8581 620,-1015.8581 620,-1015.8581 617,-1015.8581 614,-1012.8581 614,-1009.8581 614,-1009.8581 614,-1003.8581 614,-1003.8581 614,-1000.8581 617,-997.8581 620,-997.8581 620,-997.8581 670,-997.8581 670,-997.8581 673,-997.8581 676,-1000.8581 676,-1003.8581 676,-1003.8581 676,-1009.8581 676,-1009.8581 676,-1012.8581 673,-1015.8581 670,-1015.8581"/><text x="645" y="-1004.658" fill="#000" font-family="Helvetica,sans-Serif" font-size="9" text-anchor="middle">selectors.ts</text></a></g></g><g id="edge33" class="edge"><title>src/shared/i18n/IntlProvider.tsx-&gt;src/shared/store/app/selectors.ts</title><path fill="none" stroke="#000" stroke-opacity=".2" stroke-width="2" d="M520.6127,-1083.8172C545.575,-1068.3729 596.4731,-1036.8819 624.8121,-1019.3485"/><polygon fill="#000" fill-opacity=".2" stroke="#000" stroke-opacity=".2" stroke-width="2" points="626.167 -1020.98 630.165 -1016.037 623.957 -1017.408 626.167 -1020.98"/></g><g id="node30" class="node"><title>src/shared/i18n/locales/de_DE/translation.json</title><g id="a_node30"><a xlink:href="src/shared/i18n/locales/de_DE/translation.json" xlink:title="translation.json"><path fill="#fe4" stroke="#000" d="M678.5,-1177.8581C678.5,-1177.8581 611.5,-1177.8581 611.5,-1177.8581 608.5,-1177.8581 605.5,-1174.8581 605.5,-1171.8581 605.5,-1171.8581 605.5,-1165.8581 605.5,-1165.8581 605.5,-1162.8581 608.5,-1159.8581 611.5,-1159.8581 611.5,-1159.8581 678.5,-1159.8581 678.5,-1159.8581 681.5,-1159.8581 684.5,-1162.8581 684.5,-1165.8581 684.5,-1165.8581 684.5,-1171.8581 684.5,-1171.8581 684.5,-1174.8581 681.5,-1177.8581 678.5,-1177.8581"/><text x="645" y="-1166.658" fill="#000" font-family="Helvetica,sans-Serif" font-size="9" text-anchor="middle">translation.json</text></a></g></g><g id="edge34" class="edge"><title>src/shared/i18n/IntlProvider.tsx-&gt;src/shared/i18n/locales/de_DE/translation.json</title><path fill="none" stroke="#000" stroke-opacity=".2" stroke-width="2" d="M514.6341,-1102.2445C526.159,-1114.2408 547.7176,-1134.8843 570,-1146.8581 579.0927,-1151.7442 589.4039,-1155.6691 599.4067,-1158.7725"/><polygon fill="#000" fill-opacity=".2" stroke="#000" stroke-opacity=".2" stroke-width="2" points="598.899 -1160.812 605.249 -1160.506 600.094 -1156.786 598.899 -1160.812"/></g><g id="node31" class="node"><title>src/shared/i18n/locales/en_US/translation.json</title><g id="a_node31"><a xlink:href="src/shared/i18n/locales/en_US/translation.json" xlink:title="translation.json"><path fill="#fe4" stroke="#000" d="M678.5,-1117.8581C678.5,-1117.8581 611.5,-1117.8581 611.5,-1117.8581 608.5,-1117.8581 605.5,-1114.8581 605.5,-1111.8581 605.5,-1111.8581 605.5,-1105.8581 605.5,-1105.8581 605.5,-1102.8581 608.5,-1099.8581 611.5,-1099.8581 611.5,-1099.8581 678.5,-1099.8581 678.5,-1099.8581 681.5,-1099.8581 684.5,-1102.8581 684.5,-1105.8581 684.5,-1105.8581 684.5,-1111.8581 684.5,-1111.8581 684.5,-1114.8581 681.5,-1117.8581 678.5,-1117.8581"/><text x="645" y="-1106.658" fill="#000" font-family="Helvetica,sans-Serif" font-size="9" text-anchor="middle">translation.json</text></a></g></g><g id="edge35" class="edge"><title>src/shared/i18n/IntlProvider.tsx-&gt;src/shared/i18n/locales/en_US/translation.json</title><path fill="none" stroke="#000" stroke-opacity=".2" stroke-width="2" d="M544.7192,-1097.315C561.4605,-1099.2421 581.1879,-1101.5128 598.6967,-1103.5282"/><polygon fill="#000" fill-opacity=".2" stroke="#000" stroke-opacity=".2" stroke-width="2" points="598.836 -1105.658 605.037 -1104.258 599.317 -1101.486 598.836 -1105.658"/></g><g id="node41" class="node"><title>src/shared/store/rootReducer.ts</title><g id="a_node41"><a xlink:href="src/shared/store/rootReducer.ts" xlink:title="rootReducer.ts"><path fill="#ddfeff" stroke="#000" d="M419,-937.8581C419,-937.8581 354,-937.8581 354,-937.8581 351,-937.8581 348,-934.8581 348,-931.8581 348,-931.8581 348,-925.8581 348,-925.8581 348,-922.8581 351,-919.8581 354,-919.8581 354,-919.8581 419,-919.8581 419,-919.8581 422,-919.8581 425,-922.8581 425,-925.8581 425,-925.8581 425,-931.8581 425,-931.8581 425,-934.8581 422,-937.8581 419,-937.8581"/><text x="386.5" y="-926.658" fill="#000" font-family="Helvetica,sans-Serif" font-size="9" text-anchor="middle">rootReducer.ts</text></a></g></g><g id="edge49" class="edge"><title>src/shared/store/index.ts-&gt;src/shared/store/rootReducer.ts</title><path fill="none" stroke="#000" stroke-opacity=".2" stroke-width="2" d="M305.753,-928.8581C316.6084,-928.8581 329.3931,-928.8581 341.5482,-928.8581"/><polygon fill="#000" fill-opacity=".2" stroke="#000" stroke-opacity=".2" stroke-width="2" points="341.834 -930.958 347.834 -928.858 341.834 -926.758 341.834 -930.958"/></g><g id="node9" class="node"><title>src/global.d.ts</title><g id="a_node9"><a xlink:href="src/global.d.ts" xlink:title="global.d.ts"><path fill="#cfc" stroke="#000" d="M74.5,-137.8581C74.5,-137.8581 27.5,-137.8581 27.5,-137.8581 24.5,-137.8581 21.5,-134.8581 21.5,-131.8581 21.5,-131.8581 21.5,-125.8581 21.5,-125.8581 21.5,-122.8581 24.5,-119.8581 27.5,-119.8581 27.5,-119.8581 74.5,-119.8581 74.5,-119.8581 77.5,-119.8581 80.5,-122.8581 80.5,-125.8581 80.5,-125.8581 80.5,-131.8581 80.5,-131.8581 80.5,-134.8581 77.5,-137.8581 74.5,-137.8581"/><text x="51" y="-126.658" fill="#000" font-family="Helvetica,sans-Serif" font-size="9" text-anchor="middle">global.d.ts</text></a></g></g><g id="node10" class="node"><title>src/server/components/HTML.tsx</title><g id="a_node10"><a xlink:href="src/server/components/HTML.tsx" xlink:title="HTML.tsx"><path fill="#bbfeff" stroke="#000" d="M300,-273.8581C300,-273.8581 257,-273.8581 257,-273.8581 254,-273.8581 251,-270.8581 251,-267.8581 251,-267.8581 251,-261.8581 251,-261.8581 251,-258.8581 254,-255.8581 257,-255.8581 257,-255.8581 300,-255.8581 300,-255.8581 303,-255.8581 306,-258.8581 306,-261.8581 306,-261.8581 306,-267.8581 306,-267.8581 306,-270.8581 303,-273.8581 300,-273.8581"/><text x="278.5" y="-262.658" fill="#000" font-family="Helvetica,sans-Serif" font-size="9" text-anchor="middle">HTML.tsx</text></a></g></g><g id="node11" class="node"><title>src/server/index.ts</title><g id="a_node11"><a xlink:href="src/server/index.ts" xlink:title="index.ts"><path fill="#ddfeff" stroke="#000" d="M72,-209.8581C72,-209.8581 30,-209.8581 30,-209.8581 27,-209.8581 24,-206.8581 24,-203.8581 24,-203.8581 24,-197.8581 24,-197.8581 24,-194.8581 27,-191.8581 30,-191.8581 30,-191.8581 72,-191.8581 72,-191.8581 75,-191.8581 78,-194.8581 78,-197.8581 78,-197.8581 78,-203.8581 78,-203.8581 78,-206.8581 75,-209.8581 72,-209.8581"/><text x="51" y="-198.658" fill="#000" font-family="Helvetica,sans-Serif" font-size="9" text-anchor="middle">index.ts</text></a></g></g><g id="edge7" class="edge"><title>src/server/index.ts-&gt;config/paths.ts</title><path fill="none" stroke="#000" stroke-opacity=".2" stroke-width="2" d="M76.3633,-191.8116C77.8933,-190.6447 79.2971,-189.3326 80.5,-187.8581 91.1356,-174.8218 76.9385,-163.0808 88.5,-150.8581 159.2639,-76.0474 291.3986,-67.3183 353.1244,-67.6365"/><polygon fill="#000" fill-opacity=".2" stroke="#000" stroke-opacity=".2" stroke-width="2" points="353.208 -69.737 359.23 -67.699 353.251 -65.538 353.208 -69.737"/></g><g id="edge13" class="edge"><title>src/server/index.ts-&gt;path</title><path fill="none" stroke="#000" stroke-dasharray="5 2" stroke-opacity=".2" d="M76.8584,-191.7762C78.2303,-190.6209 79.4664,-189.3208 80.5,-187.8581 94.2605,-168.3853 75.2462,-100.6793 88.5,-80.8581 125.2906,-25.8373 157.1713,-29.4356 221.5,-13.8581 309.8369,7.533 336.0734,.3403 426,-12.8581 443.0984,-15.3676 461.6152,-20.7421 476.524,-25.7702"/><polygon fill="#000" fill-opacity=".2" stroke="#000" stroke-opacity=".2" points="475.902 -27.777 482.259 -27.747 477.271 -23.806 475.902 -27.777"/></g><g id="node12" class="node"><title>src/server/middleware/addStore.ts</title><g id="a_node12"><a xlink:href="src/server/middleware/addStore.ts" xlink:title="addStore.ts"><path fill="#ddfeff" stroke="#000" d="M176.5,-269.8581C176.5,-269.8581 125.5,-269.8581 125.5,-269.8581 122.5,-269.8581 119.5,-266.8581 119.5,-263.8581 119.5,-263.8581 119.5,-257.8581 119.5,-257.8581 119.5,-254.8581 122.5,-251.8581 125.5,-251.8581 125.5,-251.8581 176.5,-251.8581 176.5,-251.8581 179.5,-251.8581 182.5,-254.8581 182.5,-257.8581 182.5,-257.8581 182.5,-263.8581 182.5,-263.8581 182.5,-266.8581 179.5,-269.8581 176.5,-269.8581"/><text x="151" y="-258.658" fill="#000" font-family="Helvetica,sans-Serif" font-size="9" text-anchor="middle">addStore.ts</text></a></g></g><g id="edge8" class="edge"><title>src/server/index.ts-&gt;src/server/middleware/addStore.ts</title><path fill="none" stroke="#000" stroke-opacity=".2" stroke-width="2" d="M56.1022,-209.959C62.3722,-220.2808 73.9867,-236.8437 88.5,-245.8581 95.9708,-250.4983 104.7653,-253.7031 113.3604,-255.9166"/><polygon fill="#000" fill-opacity=".2" stroke="#000" stroke-opacity=".2" stroke-width="2" points="112.94 -257.975 119.26 -257.296 113.896 -253.885 112.94 -257.975"/></g><g id="node13" class="node"><title>src/server/middleware/errorHandler.ts</title><g id="a_node13"><a xlink:href="src/server/middleware/errorHandler.ts" xlink:title="errorHandler.ts"><path fill="#ddfeff" stroke="#000" d="M184,-179.8581C184,-179.8581 118,-179.8581 118,-179.8581 115,-179.8581 112,-176.8581 112,-173.8581 112,-173.8581 112,-167.8581 112,-167.8581 112,-164.8581 115,-161.8581 118,-161.8581 118,-161.8581 184,-161.8581 184,-161.8581 187,-161.8581 190,-164.8581 190,-167.8581 190,-167.8581 190,-173.8581 190,-173.8581 190,-176.8581 187,-179.8581 184,-179.8581"/><text x="151" y="-168.658" fill="#000" font-family="Helvetica,sans-Serif" font-size="9" text-anchor="middle">errorHandler.ts</text></a></g></g><g id="edge9" class="edge"><title>src/server/index.ts-&gt;src/server/middleware/errorHandler.ts</title><path fill="none" stroke="#000" stroke-opacity=".2" stroke-width="2" d="M72.2227,-191.7487C77.4878,-189.6614 83.1545,-187.5588 88.5,-185.8581 94.0826,-184.082 100.0041,-182.4035 105.8906,-180.8573"/><polygon fill="#000" fill-opacity=".2" stroke="#000" stroke-opacity=".2" stroke-width="2" points="106.46 -182.879 111.752 -179.357 105.418 -178.811 106.46 -182.879"/></g><g id="node14" class="node"><title>src/server/middleware/i18n.ts</title><g id="a_node14"><a xlink:href="src/server/middleware/i18n.ts" xlink:title="i18n.ts"><path fill="#ddfeff" stroke="#000" d="M172,-209.8581C172,-209.8581 130,-209.8581 130,-209.8581 127,-209.8581 124,-206.8581 124,-203.8581 124,-203.8581 124,-197.8581 124,-197.8581 124,-194.8581 127,-191.8581 130,-191.8581 130,-191.8581 172,-191.8581 172,-191.8581 175,-191.8581 178,-194.8581 178,-197.8581 178,-197.8581 178,-203.8581 178,-203.8581 178,-206.8581 175,-209.8581 172,-209.8581"/><text x="151" y="-198.658" fill="#000" font-family="Helvetica,sans-Serif" font-size="9" text-anchor="middle">i18n.ts</text></a></g></g><g id="edge10" class="edge"><title>src/server/index.ts-&gt;src/server/middleware/i18n.ts</title><path fill="none" stroke="#000" stroke-opacity=".2" stroke-width="2" d="M78.0614,-200.8581C90.2897,-200.8581 104.855,-200.8581 117.7426,-200.8581"/><polygon fill="#000" fill-opacity=".2" stroke="#000" stroke-opacity=".2" stroke-width="2" points="117.917 -202.958 123.917 -200.858 117.917 -198.758 117.917 -202.958"/></g><g id="node15" class="node"><title>src/server/middleware/serverRenderer.tsx</title><g id="a_node15"><a xlink:href="src/server/middleware/serverRenderer.tsx" xlink:title="serverRenderer.tsx"><path fill="#bbfeff" stroke="#000" d="M192.5,-239.8581C192.5,-239.8581 109.5,-239.8581 109.5,-239.8581 106.5,-239.8581 103.5,-236.8581 103.5,-233.8581 103.5,-233.8581 103.5,-227.8581 103.5,-227.8581 103.5,-224.8581 106.5,-221.8581 109.5,-221.8581 109.5,-221.8581 192.5,-221.8581 192.5,-221.8581 195.5,-221.8581 198.5,-224.8581 198.5,-227.8581 198.5,-227.8581 198.5,-233.8581 198.5,-233.8581 198.5,-236.8581 195.5,-239.8581 192.5,-239.8581"/><text x="151" y="-228.658" fill="#000" font-family="Helvetica,sans-Serif" font-size="9" text-anchor="middle">serverRenderer.tsx</text></a></g></g><g id="edge11" class="edge"><title>src/server/index.ts-&gt;src/server/middleware/serverRenderer.tsx</title><path fill="none" stroke="#000" stroke-opacity=".2" stroke-width="2" d="M72.2227,-209.9676C77.4878,-212.0548 83.1545,-214.1574 88.5,-215.8581 93.3915,-217.4143 98.543,-218.8956 103.7033,-220.2786"/><polygon fill="#000" fill-opacity=".2" stroke="#000" stroke-opacity=".2" stroke-width="2" points="103.414 -222.373 109.75 -221.856 104.474 -218.309 103.414 -222.373"/></g><g id="node16" class="node"><title>src/server/middleware/webhookVerification.ts</title><g id="a_node16"><a xlink:href="src/server/middleware/webhookVerification.ts" xlink:title="webhookVerification.ts"><path fill="#ddfeff" stroke="#000" d="M199.5,-299.8581C199.5,-299.8581 102.5,-299.8581 102.5,-299.8581 99.5,-299.8581 96.5,-296.8581 96.5,-293.8581 96.5,-293.8581 96.5,-287.8581 96.5,-287.8581 96.5,-284.8581 99.5,-281.8581 102.5,-281.8581 102.5,-281.8581 199.5,-281.8581 199.5,-281.8581 202.5,-281.8581 205.5,-284.8581 205.5,-287.8581 205.5,-287.8581 205.5,-293.8581 205.5,-293.8581 205.5,-296.8581 202.5,-299.8581 199.5,-299.8581"/><text x="151" y="-288.658" fill="#000" font-family="Helvetica,sans-Serif" font-size="9" text-anchor="middle">webhookVerification.ts</text></a></g></g><g id="edge12" class="edge"><title>src/server/index.ts-&gt;src/server/middleware/webhookVerification.ts</title><path fill="none" stroke="#000" stroke-opacity=".2" stroke-width="2" d="M52.9345,-210.0639C56.7838,-226.0201 66.9569,-258.7432 88.5,-275.8581 89.7614,-276.8603 91.0794,-277.7971 92.4434,-278.6727"/><polygon fill="#000" fill-opacity=".2" stroke="#000" stroke-opacity=".2" stroke-width="2" points="91.653 -280.638 97.911 -281.756 93.716 -276.98 91.653 -280.638"/></g><g id="edge17" class="edge"><title>src/server/middleware/addStore.ts-&gt;src/shared/store/index.ts</title><path fill="none" stroke="#000" stroke-opacity=".2" stroke-width="2" d="M182.625,-260.7529C194.1348,-262.455 206.1189,-266.6153 213.5,-275.8581 235.6891,-303.6437 199.1542,-888.1984 221.5,-915.8581 227.3603,-923.1119 236.3558,-926.8336 245.4813,-928.624"/><polygon fill="#000" fill-opacity=".2" stroke="#000" stroke-opacity=".2" stroke-width="2" points="245.217 -930.708 251.465 -929.539 245.852 -926.556 245.217 -930.708"/></g><g id="edge18" class="edge"><title>src/server/middleware/errorHandler.ts-&gt;path</title><path fill="none" stroke="#000" stroke-dasharray="5 2" stroke-opacity=".2" d="M153.658,-161.7558C160.6933,-139.361 182.0205,-81.3424 221.5,-52.8581 297.1742,1.7406 415.7891,-15.4334 472.9809,-28.2546"/><polygon fill="#000" fill-opacity=".2" stroke="#000" stroke-opacity=".2" points="472.665 -30.337 478.983 -29.635 473.606 -26.244 472.665 -30.337"/></g><g id="edge20" class="edge"><title>src/server/middleware/i18n.ts-&gt;fs</title><path fill="none" stroke="#000" stroke-dasharray="5 2" stroke-opacity=".2" d="M178.2067,-200.3003C190.397,-198.6827 204.1099,-194.7676 213.5,-185.8581 222.5792,-177.2436 212.3596,-167.4076 221.5,-158.8581 239.8939,-141.6534 401.5946,-112.5253 472.6973,-100.4059"/><polygon fill="#000" fill-opacity=".2" stroke="#000" stroke-opacity=".2" points="473.317 -102.431 478.881 -99.356 472.614 -98.29 473.317 -102.431"/></g><g id="edge21" class="edge"><title>src/server/middleware/i18n.ts-&gt;path</title><path fill="none" stroke="#000" stroke-dasharray="5 2" stroke-opacity=".2" d="M178.2256,-201.0131C190.7242,-199.5968 204.6913,-195.6453 213.5,-185.8581 231.7919,-165.5343 206.8938,-147.9733 221.5,-124.8581 254.7227,-72.281 280.0208,-68.5952 339,-48.8581 383.5045,-33.9649 438.2969,-33.0842 472.6993,-34.4651"/><polygon fill="#000" fill-opacity=".2" stroke="#000" stroke-opacity=".2" points="472.789 -36.571 478.879 -34.746 472.98 -32.376 472.789 -36.571"/></g><g id="node17" class="node"><title>src/server/lib/i18n/lokalise.ts</title><g id="a_node17"><a xlink:href="src/server/lib/i18n/lokalise.ts" xlink:title="lokalise.ts"><path fill="#ddfeff" stroke="#000" d="M301,-187.8581C301,-187.8581 256,-187.8581 256,-187.8581 253,-187.8581 250,-184.8581 250,-181.8581 250,-181.8581 250,-175.8581 250,-175.8581 250,-172.8581 253,-169.8581 256,-169.8581 256,-169.8581 301,-169.8581 301,-169.8581 304,-169.8581 307,-172.8581 307,-175.8581 307,-175.8581 307,-181.8581 307,-181.8581 307,-184.8581 304,-187.8581 301,-187.8581"/><text x="278.5" y="-176.658" fill="#000" font-family="Helvetica,sans-Serif" font-size="9" text-anchor="middle">lokalise.ts</text></a></g></g><g id="edge19" class="edge"><title>src/server/middleware/i18n.ts-&gt;src/server/lib/i18n/lokalise.ts</title><path fill="none" stroke="#000" stroke-opacity=".2" stroke-width="2" d="M178.0395,-196.1925C197.2004,-192.8863 223.0733,-188.4219 243.7634,-184.8519"/><polygon fill="#000" fill-opacity=".2" stroke="#000" stroke-opacity=".2" stroke-width="2" points="244.172 -186.912 249.727 -183.823 243.458 -182.774 244.172 -186.912"/></g><g id="edge22" class="edge"><title>src/server/middleware/serverRenderer.tsx-&gt;src/shared/App.tsx</title><path fill="none" stroke="#000" stroke-opacity=".2" stroke-width="2" d="M198.6377,-235.5128C204.2917,-237.8927 209.4731,-241.2265 213.5,-245.8581 225.6579,-259.8418 212.974,-312.4062 221.5,-328.8581 253.7703,-391.1271 325.9578,-437.736 363.2343,-458.6682"/><polygon fill="#000" fill-opacity=".2" stroke="#000" stroke-opacity=".2" stroke-width="2" points="362.639 -460.739 368.906 -461.806 364.672 -457.064 362.639 -460.739"/></g><g id="edge23" class="edge"><title>src/server/middleware/serverRenderer.tsx-&gt;src/shared/i18n/IntlProvider.tsx</title><path fill="none" stroke="#000" stroke-opacity=".2" stroke-width="2" d="M198.7632,-235.8056C204.3257,-238.1513 209.4487,-241.3975 213.5,-245.8581 230.6992,-264.7951 204.5161,-283.7279 221.5,-302.8581 283.9103,-373.1556 368.2065,-282.7184 426,-356.8581 437.7503,-371.9318 424.8838,-1028.0599 434,-1044.8581 442.9985,-1061.4396 460.4941,-1073.3035 475.9851,-1081.0882"/><polygon fill="#000" fill-opacity=".2" stroke="#000" stroke-opacity=".2" stroke-width="2" points="475.264 -1083.071 481.582 -1083.773 477.08 -1079.284 475.264 -1083.071"/></g><g id="edge24" class="edge"><title>src/server/middleware/serverRenderer.tsx-&gt;src/server/components/HTML.tsx</title><path fill="none" stroke="#000" stroke-opacity=".2" stroke-width="2" d="M190.0818,-239.9271C197.8578,-241.819 205.9513,-243.8503 213.5,-245.8581 223.7577,-248.5865 234.8644,-251.7535 244.9456,-254.7105"/><polygon fill="#000" fill-opacity=".2" stroke="#000" stroke-opacity=".2" stroke-width="2" points="244.4 -256.739 250.749 -256.422 245.588 -252.71 244.4 -256.739"/></g><g id="edge14" class="edge"><title>src/server/lib/i18n/lokalise.ts-&gt;config/paths.ts</title><path fill="none" stroke="#000" stroke-opacity=".2" stroke-width="2" d="M287.3381,-169.8564C306.2452,-150.5991 350.7149,-105.3059 373.1125,-82.4935"/><polygon fill="#000" fill-opacity=".2" stroke="#000" stroke-opacity=".2" stroke-width="2" points="374.835 -83.737 377.54 -77.984 371.838 -80.794 374.835 -83.737"/></g><g id="edge15" class="edge"><title>src/server/lib/i18n/lokalise.ts-&gt;fs</title><path fill="none" stroke="#000" stroke-dasharray="5 2" stroke-opacity=".2" d="M307.1264,-179.1294C337.7362,-178.4448 387.118,-174.4922 426,-157.8581 452.8692,-146.3632 478.3964,-123.4433 493.1104,-108.6472"/><polygon fill="#000" fill-opacity=".2" stroke="#000" stroke-opacity=".2" points="494.987 -109.731 497.672 -103.969 491.98 -106.799 494.987 -109.731"/></g><g id="edge16" class="edge"><title>src/server/lib/i18n/lokalise.ts-&gt;path</title><path fill="none" stroke="#000" stroke-dasharray="5 2" stroke-opacity=".2" d="M302.6166,-169.8417C339.9004,-155.4643 409.0177,-126.9235 426,-106.8581 434.0855,-97.3047 426.3241,-89.7436 434,-79.8581 444.7997,-65.9497 461.4655,-55.5854 476.0441,-48.5209"/><polygon fill="#000" fill-opacity=".2" stroke="#000" stroke-opacity=".2" points="477.166 -50.315 481.721 -45.882 475.395 -46.507 477.166 -50.315"/></g><g id="node19" class="node"><title>src/shared/App.module.css.d.ts</title><g id="a_node19"><a xlink:href="src/shared/App.module.css.d.ts" xlink:title="App.module.css.d.ts"><path fill="#cfc" stroke="#000" d="M321.5,-845.8581C321.5,-845.8581 235.5,-845.8581 235.5,-845.8581 232.5,-845.8581 229.5,-842.8581 229.5,-839.8581 229.5,-839.8581 229.5,-833.8581 229.5,-833.8581 229.5,-830.8581 232.5,-827.8581 235.5,-827.8581 235.5,-827.8581 321.5,-827.8581 321.5,-827.8581 324.5,-827.8581 327.5,-830.8581 327.5,-833.8581 327.5,-833.8581 327.5,-839.8581 327.5,-839.8581 327.5,-842.8581 324.5,-845.8581 321.5,-845.8581"/><text x="278.5" y="-834.658" fill="#000" font-family="Helvetica,sans-Serif" font-size="9" text-anchor="middle">App.module.css.d.ts</text></a></g></g><g id="node28" class="node"><title>src/shared/components/Features/index.tsx</title><g id="a_node28"><a xlink:href="src/shared/components/Features/index.tsx" xlink:title="index.tsx"><path fill="#bbfeff" stroke="#000" d="M666,-821.8581C666,-821.8581 624,-821.8581 624,-821.8581 621,-821.8581 618,-818.8581 618,-815.8581 618,-815.8581 618,-809.8581 618,-809.8581 618,-806.8581 621,-803.8581 624,-803.8581 624,-803.8581 666,-803.8581 666,-803.8581 669,-803.8581 672,-806.8581 672,-809.8581 672,-809.8581 672,-815.8581 672,-815.8581 672,-818.8581 669,-821.8581 666,-821.8581"/><text x="645" y="-810.658" fill="#000" font-family="Helvetica,sans-Serif" font-size="9" text-anchor="middle">index.tsx</text></a></g></g><g id="edge36" class="edge"><title>src/shared/pages/Home/index.tsx-&gt;src/shared/components/Features/index.tsx</title><path fill="none" stroke="#000" stroke-opacity=".2" stroke-width="2" d="M519.3279,-727.8712C544.2758,-744.7425 598.0663,-781.1188 626.5057,-800.3512"/><polygon fill="#000" fill-opacity=".2" stroke="#000" stroke-opacity=".2" stroke-width="2" points="625.362 -802.113 631.508 -803.734 627.714 -798.633 625.362 -802.113"/></g><g id="node32" class="node"><title>src/shared/store/app/actions.ts</title><g id="a_node32"><a xlink:href="src/shared/store/app/actions.ts" xlink:title="actions.ts"><path fill="#ddfeff" stroke="#000" d="M666.5,-971.8581C666.5,-971.8581 623.5,-971.8581 623.5,-971.8581 620.5,-971.8581 617.5,-968.8581 617.5,-965.8581 617.5,-965.8581 617.5,-959.8581 617.5,-959.8581 617.5,-956.8581 620.5,-953.8581 623.5,-953.8581 623.5,-953.8581 666.5,-953.8581 666.5,-953.8581 669.5,-953.8581 672.5,-956.8581 672.5,-959.8581 672.5,-959.8581 672.5,-965.8581 672.5,-965.8581 672.5,-968.8581 669.5,-971.8581 666.5,-971.8581"/><text x="645" y="-960.658" fill="#000" font-family="Helvetica,sans-Serif" font-size="9" text-anchor="middle">actions.ts</text></a></g></g><g id="edge37" class="edge"><title>src/shared/pages/Home/index.tsx-&gt;src/shared/store/app/actions.ts</title><path fill="none" stroke="#000" stroke-opacity=".2" stroke-width="2" d="M507.6725,-727.888C514.554,-764.2106 541.6583,-899.2108 570,-930.8581 580.7428,-942.8539 596.7464,-950.5073 611.2146,-955.3088"/><polygon fill="#000" fill-opacity=".2" stroke="#000" stroke-opacity=".2" stroke-width="2" points="610.949 -957.425 617.302 -957.196 612.193 -953.413 610.949 -957.425"/></g><g id="node33" class="node"><title>src/shared/store/app/types.ts</title><g id="a_node33"><a xlink:href="src/shared/store/app/types.ts" xlink:title="types.ts"><path fill="#ddfeff" stroke="#000" d="M788.5,-982.8581C788.5,-982.8581 746.5,-982.8581 746.5,-982.8581 743.5,-982.8581 740.5,-979.8581 740.5,-976.8581 740.5,-976.8581 740.5,-970.8581 740.5,-970.8581 740.5,-967.8581 743.5,-964.8581 746.5,-964.8581 746.5,-964.8581 788.5,-964.8581 788.5,-964.8581 791.5,-964.8581 794.5,-967.8581 794.5,-970.8581 794.5,-970.8581 794.5,-976.8581 794.5,-976.8581 794.5,-979.8581 791.5,-982.8581 788.5,-982.8581"/><text x="767.5" y="-971.658" fill="#000" font-family="Helvetica,sans-Serif" font-size="9" text-anchor="middle">types.ts</text></a></g></g><g id="edge38" class="edge"><title>src/shared/pages/Home/index.tsx-&gt;src/shared/store/app/types.ts</title><path fill="none" stroke="#000" stroke-opacity=".2" stroke-width="2" d="M507.2481,-728.184C511.3193,-755.2019 526.5516,-834.5433 570,-880.8581 576.3668,-887.6449 689.2421,-938.7708 741.4287,-962.197"/><polygon fill="#000" fill-opacity=".2" stroke="#000" stroke-opacity=".2" stroke-width="2" points="740.848 -964.238 747.183 -964.778 742.567 -960.406 740.848 -964.238"/></g><g id="node35" class="node"><title>src/shared/pages/Page-1/Page-1.module.css</title><g id="a_node35"><a xlink:href="src/shared/pages/Page-1/Page-1.module.css" xlink:title="Page-1.module.css"><path fill="#ffc" stroke="#000" d="M686.5,-667.8581C686.5,-667.8581 603.5,-667.8581 603.5,-667.8581 600.5,-667.8581 597.5,-664.8581 597.5,-661.8581 597.5,-661.8581 597.5,-655.8581 597.5,-655.8581 597.5,-652.8581 600.5,-649.8581 603.5,-649.8581 603.5,-649.8581 686.5,-649.8581 686.5,-649.8581 689.5,-649.8581 692.5,-652.8581 692.5,-655.8581 692.5,-655.8581 692.5,-661.8581 692.5,-661.8581 692.5,-664.8581 689.5,-667.8581 686.5,-667.8581"/><text x="645" y="-656.658" fill="#000" font-family="Helvetica,sans-Serif" font-size="9" text-anchor="middle">Page-1.module.css</text></a></g></g><g id="edge39" class="edge"><title>src/shared/pages/Page-1/index.tsx-&gt;src/shared/pages/Page-1/Page-1.module.css</title><path fill="none" stroke="#000" stroke-opacity=".2" stroke-width="2" d="M533.1306,-658.8581C549.6702,-658.8581 571.3867,-658.8581 591.2816,-658.8581"/><polygon fill="#000" fill-opacity=".2" stroke="#000" stroke-opacity=".2" stroke-width="2" points="591.39 -660.958 597.39 -658.858 591.39 -656.758 591.39 -660.958"/></g><g id="node26" class="node"><title>src/shared/components/Features/Features.module.css</title><g id="a_node26"><a xlink:href="src/shared/components/Features/Features.module.css" xlink:title="Features.module.css"><path fill="#ffc" stroke="#000" d="M812,-821.8581C812,-821.8581 723,-821.8581 723,-821.8581 720,-821.8581 717,-818.8581 717,-815.8581 717,-815.8581 717,-809.8581 717,-809.8581 717,-806.8581 720,-803.8581 723,-803.8581 723,-803.8581 812,-803.8581 812,-803.8581 815,-803.8581 818,-806.8581 818,-809.8581 818,-809.8581 818,-815.8581 818,-815.8581 818,-818.8581 815,-821.8581 812,-821.8581"/><text x="767.5" y="-810.658" fill="#000" font-family="Helvetica,sans-Serif" font-size="9" text-anchor="middle">Features.module.css</text></a></g></g><g id="node27" class="node"><title>src/shared/components/Features/Features.module.css.d.ts</title><g id="a_node27"><a xlink:href="src/shared/components/Features/Features.module.css.d.ts" xlink:title="Features.module.css.d.ts"><path fill="#cfc" stroke="#000" d="M698,-851.8581C698,-851.8581 592,-851.8581 592,-851.8581 589,-851.8581 586,-848.8581 586,-845.8581 586,-845.8581 586,-839.8581 586,-839.8581 586,-836.8581 589,-833.8581 592,-833.8581 592,-833.8581 698,-833.8581 698,-833.8581 701,-833.8581 704,-836.8581 704,-839.8581 704,-839.8581 704,-845.8581 704,-845.8581 704,-848.8581 701,-851.8581 698,-851.8581"/><text x="645" y="-840.658" fill="#000" font-family="Helvetica,sans-Serif" font-size="9" text-anchor="middle">Features.module.css.d.ts</text></a></g></g><g id="edge32" class="edge"><title>src/shared/components/Features/index.tsx-&gt;src/shared/components/Features/Features.module.css</title><path fill="none" stroke="#000" stroke-opacity=".2" stroke-width="2" d="M672.1867,-812.8581C683.5561,-812.8581 697.2215,-812.8581 710.6078,-812.8581"/><polygon fill="#000" fill-opacity=".2" stroke="#000" stroke-opacity=".2" stroke-width="2" points="710.73 -814.958 716.729 -812.858 710.729 -810.758 710.73 -814.958"/></g><g id="edge48" class="edge"><title>src/shared/store/app/selectors.ts-&gt;src/shared/store/app/types.ts</title><path fill="none" stroke="#000" stroke-opacity=".2" stroke-width="2" d="M676.2289,-998.4454C694.0612,-993.6416 716.4039,-987.6228 734.5199,-982.7426"/><polygon fill="#000" fill-opacity=".2" stroke="#000" stroke-opacity=".2" stroke-width="2" points="735.242 -984.723 740.489 -981.135 734.149 -980.668 735.242 -984.723"/></g><g id="edge41" class="edge"><title>src/shared/store/app/actions.ts-&gt;src/shared/store/app/types.ts</title><path fill="none" stroke="#000" stroke-opacity=".2" stroke-width="2" d="M672.7971,-965.3542C691.0146,-966.99 714.9275,-969.1373 734.166,-970.8649"/><polygon fill="#000" fill-opacity=".2" stroke="#000" stroke-opacity=".2" stroke-width="2" points="734.071 -972.965 740.235 -971.41 734.447 -968.782 734.071 -972.965"/></g><g id="node34" class="node"><title>src/shared/pages/Page-1/Page-1.css.d.ts</title><g id="a_node34"><a xlink:href="src/shared/pages/Page-1/Page-1.css.d.ts" xlink:title="Page-1.css.d.ts"><path fill="#cfc" stroke="#000" d="M539.5,-637.8581C539.5,-637.8581 472.5,-637.8581 472.5,-637.8581 469.5,-637.8581 466.5,-634.8581 466.5,-631.8581 466.5,-631.8581 466.5,-625.8581 466.5,-625.8581 466.5,-622.8581 469.5,-619.8581 472.5,-619.8581 472.5,-619.8581 539.5,-619.8581 539.5,-619.8581 542.5,-619.8581 545.5,-622.8581 545.5,-625.8581 545.5,-625.8581 545.5,-631.8581 545.5,-631.8581 545.5,-634.8581 542.5,-637.8581 539.5,-637.8581"/><text x="506" y="-626.658" fill="#000" font-family="Helvetica,sans-Serif" font-size="9" text-anchor="middle">Page-1.css.d.ts</text></a></g></g><g id="node36" class="node"><title>src/shared/pages/Page-1/Page-1.module.css.d.ts</title><g id="a_node36"><a xlink:href="src/shared/pages/Page-1/Page-1.module.css.d.ts" xlink:title="Page-1.module.css.d.ts"><path fill="#cfc" stroke="#000" d="M556,-607.8581C556,-607.8581 456,-607.8581 456,-607.8581 453,-607.8581 450,-604.8581 450,-601.8581 450,-601.8581 450,-595.8581 450,-595.8581 450,-592.8581 453,-589.8581 456,-589.8581 456,-589.8581 556,-589.8581 556,-589.8581 559,-589.8581 562,-592.8581 562,-595.8581 562,-595.8581 562,-601.8581 562,-601.8581 562,-604.8581 559,-607.8581 556,-607.8581"/><text x="506" y="-596.658" fill="#000" font-family="Helvetica,sans-Serif" font-size="9" text-anchor="middle">Page-1.module.css.d.ts</text></a></g></g><g id="node37" class="node"><title>src/shared/routes.test.ts</title><g id="a_node37"><a xlink:href="src/shared/routes.test.ts" xlink:title="routes.test.ts"><path fill="#ddfeff" stroke="#000" d="M414.5,-385.8581C414.5,-385.8581 358.5,-385.8581 358.5,-385.8581 355.5,-385.8581 352.5,-382.8581 352.5,-379.8581 352.5,-379.8581 352.5,-373.8581 352.5,-373.8581 352.5,-370.8581 355.5,-367.8581 358.5,-367.8581 358.5,-367.8581 414.5,-367.8581 414.5,-367.8581 417.5,-367.8581 420.5,-370.8581 420.5,-373.8581 420.5,-373.8581 420.5,-379.8581 420.5,-379.8581 420.5,-382.8581 417.5,-385.8581 414.5,-385.8581"/><text x="386.5" y="-374.658" fill="#000" font-family="Helvetica,sans-Serif" font-size="9" text-anchor="middle">routes.test.ts</text></a></g></g><g id="edge40" class="edge"><title>src/shared/routes.test.ts-&gt;src/shared/routes.ts</title><path fill="none" stroke="#000" stroke-opacity=".2" stroke-width="2" d="M420.7439,-376.8581C437.0615,-376.8581 456.5035,-376.8581 472.698,-376.8581"/><polygon fill="#000" fill-opacity=".2" stroke="#000" stroke-opacity=".2" stroke-width="2" points="472.961 -378.958 478.961 -376.858 472.961 -374.758 472.961 -378.958"/></g><g id="node38" class="node"><title>src/shared/store/app/reducer.test.ts</title><g id="a_node38"><a xlink:href="src/shared/store/app/reducer.test.ts" xlink:title="reducer.test.ts"><path fill="#ddfeff" stroke="#000" d="M417.5,-978.8581C417.5,-978.8581 355.5,-978.8581 355.5,-978.8581 352.5,-978.8581 349.5,-975.8581 349.5,-972.8581 349.5,-972.8581 349.5,-966.8581 349.5,-966.8581 349.5,-963.8581 352.5,-960.8581 355.5,-960.8581 355.5,-960.8581 417.5,-960.8581 417.5,-960.8581 420.5,-960.8581 423.5,-963.8581 423.5,-966.8581 423.5,-966.8581 423.5,-972.8581 423.5,-972.8581 423.5,-975.8581 420.5,-978.8581 417.5,-978.8581"/><text x="386.5" y="-967.658" fill="#000" font-family="Helvetica,sans-Serif" font-size="9" text-anchor="middle">reducer.test.ts</text></a></g></g><g id="edge42" class="edge"><title>src/shared/store/app/reducer.test.ts-&gt;src/shared/store/app/actions.ts</title><path fill="none" stroke="#000" stroke-opacity=".2" stroke-width="2" d="M423.5367,-968.8552C473.639,-967.4985 562.3148,-965.0972 610.871,-963.7823"/><polygon fill="#000" fill-opacity=".2" stroke="#000" stroke-opacity=".2" stroke-width="2" points="611.221 -965.874 617.162 -963.612 611.107 -961.675 611.221 -965.874"/></g><g id="node39" class="node"><title>src/shared/store/app/reducer.ts</title><g id="a_node39"><a xlink:href="src/shared/store/app/reducer.ts" xlink:title="reducer.ts"><path fill="#ddfeff" stroke="#000" d="M528.5,-993.8581C528.5,-993.8581 483.5,-993.8581 483.5,-993.8581 480.5,-993.8581 477.5,-990.8581 477.5,-987.8581 477.5,-987.8581 477.5,-981.8581 477.5,-981.8581 477.5,-978.8581 480.5,-975.8581 483.5,-975.8581 483.5,-975.8581 528.5,-975.8581 528.5,-975.8581 531.5,-975.8581 534.5,-978.8581 534.5,-981.8581 534.5,-981.8581 534.5,-987.8581 534.5,-987.8581 534.5,-990.8581 531.5,-993.8581 528.5,-993.8581"/><text x="506" y="-982.658" fill="#000" font-family="Helvetica,sans-Serif" font-size="9" text-anchor="middle">reducer.ts</text></a></g></g><g id="edge43" class="edge"><title>src/shared/store/app/reducer.test.ts-&gt;src/shared/store/app/reducer.ts</title><path fill="none" stroke="#000" stroke-opacity=".2" stroke-width="2" d="M423.6555,-974.522C438.763,-976.4183 456.1305,-978.5984 471.0095,-980.466"/><polygon fill="#000" fill-opacity=".2" stroke="#000" stroke-opacity=".2" stroke-width="2" points="471.005 -982.582 477.22 -981.246 471.528 -978.415 471.005 -982.582"/></g><g id="edge44" class="edge"><title>src/shared/store/app/reducer.ts-&gt;src/shared/store/app/actions.ts</title><path fill="none" stroke="#000" stroke-opacity=".2" stroke-width="2" d="M534.8009,-980.2997C556.9918,-976.7875 587.7298,-971.9225 611.1056,-968.2227"/><polygon fill="#000" fill-opacity=".2" stroke="#000" stroke-opacity=".2" stroke-width="2" points="611.587 -970.273 617.184 -967.261 610.93 -966.124 611.587 -970.273"/></g><g id="edge45" class="edge"><title>src/shared/store/app/reducer.ts-&gt;src/shared/store/app/types.ts</title><path fill="none" stroke="#000" stroke-opacity=".2" stroke-width="2" d="M534.5179,-984.1701C573.7305,-983.1561 646.4933,-981.0309 708.5,-977.8581 716.8339,-977.4317 725.8234,-976.8728 734.2121,-976.3086"/><polygon fill="#000" fill-opacity=".2" stroke="#000" stroke-opacity=".2" stroke-width="2" points="734.647 -978.384 740.489 -975.878 734.36 -974.194 734.647 -978.384"/></g><g id="node40" class="node"><title>src/shared/store/app/selectors.test.ts</title><g id="a_node40"><a xlink:href="src/shared/store/app/selectors.test.ts" xlink:title="selectors.test.ts"><path fill="#ddfeff" stroke="#000" d="M420,-1011.8581C420,-1011.8581 353,-1011.8581 353,-1011.8581 350,-1011.8581 347,-1008.8581 347,-1005.8581 347,-1005.8581 347,-999.8581 347,-999.8581 347,-996.8581 350,-993.8581 353,-993.8581 353,-993.8581 420,-993.8581 420,-993.8581 423,-993.8581 426,-996.8581 426,-999.8581 426,-999.8581 426,-1005.8581 426,-1005.8581 426,-1008.8581 423,-1011.8581 420,-1011.8581"/><text x="386.5" y="-1000.658" fill="#000" font-family="Helvetica,sans-Serif" font-size="9" text-anchor="middle">selectors.test.ts</text></a></g></g><g id="edge47" class="edge"><title>src/shared/store/app/selectors.test.ts-&gt;src/shared/store/app/selectors.ts</title><path fill="none" stroke="#000" stroke-opacity=".2" stroke-width="2" d="M426.042,-1003.47C475.4468,-1004.2345 559.3577,-1005.5329 607.6938,-1006.2808"/><polygon fill="#000" fill-opacity=".2" stroke="#000" stroke-opacity=".2" stroke-width="2" points="607.951 -1008.385 613.983 -1006.378 608.016 -1004.186 607.951 -1008.385"/></g><g id="edge46" class="edge"><title>src/shared/store/app/selectors.test.ts-&gt;src/shared/store/app/reducer.ts</title><path fill="none" stroke="#000" stroke-opacity=".2" stroke-width="2" d="M426.2918,-996.8644C440.7758,-994.6827 457.0277,-992.2347 471.0598,-990.1211"/><polygon fill="#000" fill-opacity=".2" stroke="#000" stroke-opacity=".2" stroke-width="2" points="471.716 -992.146 477.336 -989.176 471.091 -987.993 471.716 -992.146"/></g><g id="edge50" class="edge"><title>src/shared/store/rootReducer.ts-&gt;src/shared/store/app/reducer.ts</title><path fill="none" stroke="#000" stroke-opacity=".2" stroke-width="2" d="M413.8968,-937.9951C417.9911,-939.5254 422.1333,-941.1682 426,-942.8581 446.4826,-951.81 468.9502,-963.8096 484.8465,-972.6902"/><polygon fill="#000" fill-opacity=".2" stroke="#000" stroke-opacity=".2" stroke-width="2" points="484.131 -974.697 490.39 -975.809 486.191 -971.037 484.131 -974.697"/></g><g id="node42" class="node"><title>src/shared/test.css.d.ts</title><g id="a_node42"><a xlink:href="src/shared/test.css.d.ts" xlink:title="test.css.d.ts"><path fill="#cfc" stroke="#000" d="M304,-758.8581C304,-758.8581 253,-758.8581 253,-758.8581 250,-758.8581 247,-755.8581 247,-752.8581 247,-752.8581 247,-746.8581 247,-746.8581 247,-743.8581 250,-740.8581 253,-740.8581 253,-740.8581 304,-740.8581 304,-740.8581 307,-740.8581 310,-743.8581 310,-746.8581 310,-746.8581 310,-752.8581 310,-752.8581 310,-755.8581 307,-758.8581 304,-758.8581"/><text x="278.5" y="-747.658" fill="#000" font-family="Helvetica,sans-Serif" font-size="9" text-anchor="middle">test.css.d.ts</text></a></g></g><g id="node43" class="node"><title>src/shared/variables.css.d.ts</title><g id="a_node43"><a xlink:href="src/shared/variables.css.d.ts" xlink:title="variables.css.d.ts"><path fill="#cfc" stroke="#000" d="M315.5,-614.8581C315.5,-614.8581 241.5,-614.8581 241.5,-614.8581 238.5,-614.8581 235.5,-611.8581 235.5,-608.8581 235.5,-608.8581 235.5,-602.8581 235.5,-602.8581 235.5,-599.8581 238.5,-596.8581 241.5,-596.8581 241.5,-596.8581 315.5,-596.8581 315.5,-596.8581 318.5,-596.8581 321.5,-599.8581 321.5,-602.8581 321.5,-602.8581 321.5,-608.8581 321.5,-608.8581 321.5,-611.8581 318.5,-614.8581 315.5,-614.8581"/><text x="278.5" y="-603.658" fill="#000" font-family="Helvetica,sans-Serif" font-size="9" text-anchor="middle">variables.css.d.ts</text></a></g></g></g></svg>